<svg width="15" height="15" viewBox="0 0 15 15" fill="none" xmlns="http://www.w3.org/2000/svg">
    <path d="M6.34686 1.2824C6.78894 0.52884 7.87412 0.516689 8.33297 1.26016L9.91327 3.82075C10.0781 4.08784 10.3442 4.27667 10.6508 4.34406L13.5896 4.99011C14.4429 5.1777 14.7898 6.20602 14.2245 6.87215L12.2775 9.16637C12.0745 9.40568 11.9771 9.71712 12.0077 10.0295L12.3014 13.0241C12.3867 13.8936 11.5159 14.5413 10.7077 14.2095L7.92415 13.0668C7.6338 12.9476 7.30752 12.9513 7.01991 13.0769L4.26263 14.2817C3.46204 14.6314 2.57697 14.0034 2.64276 13.1322L2.86934 10.1318C2.89298 9.81882 2.78868 9.50964 2.58029 9.27494L0.582487 7.02489C0.00241976 6.37158 0.326204 5.33575 1.17508 5.12911L4.09868 4.41742C4.40364 4.34318 4.66546 4.14844 4.82428 3.87773L6.34686 1.2824Z" fill="#FBBE04"/>
    <path d="M2.00507 6.10599C1.96466 5.93195 2.073 5.7581 2.24705 5.7177L4.53906 5.18562C4.71311 5.14521 4.88695 5.25355 4.92736 5.4276C4.96776 5.60164 4.85942 5.77549 4.68538 5.81589L2.39336 6.34797C2.21932 6.38838 2.04547 6.28004 2.00507 6.10599Z" fill="#FDDC68"/>
    <path d="M4.50584 5.71365C4.37006 5.59751 4.35414 5.39329 4.47029 5.25751L5.83455 3.66258C5.95069 3.5268 6.15491 3.51088 6.29069 3.62702C6.42647 3.74316 6.44239 3.94738 6.32625 4.08316L4.96198 5.6781C4.84584 5.81388 4.64162 5.82979 4.50584 5.71365Z" fill="#FDDC68"/>
    </svg>
    